<?xml version="1.0" standalone="no"?>
<!DOCTYPE svg PUBLIC "-//W3C//DTD SVG 20010904//EN"
 "http://www.w3.org/TR/2001/REC-SVG-20010904/DTD/svg10.dtd">
<svg version="1.0" xmlns="http://www.w3.org/2000/svg"
 width="336.000000pt" height="335.000000pt" viewBox="0 0 336.000000 335.000000"
 preserveAspectRatio="xMidYMid meet">
<metadata>
Created by potrace 1.15, written by Peter Selinger 2001-2017
</metadata>
<g transform="translate(0.000000,335.000000) scale(0.100000,-0.100000)"
fill="#FFFFFF" stroke="none">

<path fill="#FFFFFF;" d="M1475 3344 c-544 -82 -981 -370 -1251 -827 -151 -255 -224 -530 -224
-842 0 -243 38 -435 126 -646 217 -516 681 -893 1239 -1006 129 -26 501 -26
630 0 705 143 1237 694 1350 1397 9 56 15 160 15 255 0 243 -38 435 -126 646
-214 509 -666 881 -1216 1001 -73 16 -138 21 -303 23 -115 2 -223 1 -240 -1z
m539 -53 c584 -126 1049 -540 1237 -1101 108 -324 108 -706 0 -1030 -188 -561
-648 -971 -1237 -1102 -87 -19 -128 -22 -334 -22 -206 0 -247 3 -334 22 -589
131 -1049 541 -1237 1102 -108 324 -108 706 0 1030 188 561 667 986 1237 1100
146 29 142 28 364 25 165 -2 224 -6 304 -24z"/>
<path fill = "#FFFFFF" d="M1315 2468 c-32 -28 -47 -89 -35 -143 12 -55 40 -75 105 -75 43 0 57
5 78 26 48 48 45 163 -6 199 -34 23 -111 19 -142 -7z m105 -18 c43 -23 43
-137 0 -160 -54 -29 -100 6 -100 77 0 73 47 111 100 83z"/>
<path fill = "#FFFFFF" d="M1530 2310 c0 -113 1 -120 20 -120 16 0 20 7 20 34 0 30 2 33 25 28
61 -11 95 22 95 96 0 55 -23 82 -69 82 -20 0 -42 -5 -49 -12 -9 -9 -12 -9 -12
0 0 7 -7 12 -15 12 -12 0 -15 -20 -15 -120z"/>
<path fill = "#FFFFFF" d="M1741 2404 c-28 -36 -29 -106 0 -135 26 -26 122 -24 127 3 3 14 -3
15 -37 11 -42 -6 -71 8 -71 33 0 10 16 14 60 14 l60 0 0 30 c0 68 -96 98 -139
44z"/>
<path fill = "#FFFFFF" d="M1920 2338 c0 -81 2 -88 20 -88 18 0 20 7 20 63 0 65 11 87 41 87 23
0 29 -20 29 -91 0 -52 2 -59 20 -59 18 0 20 7 20 68 0 96 -13 112 -90 110
l-60 -2 0 -88z"/>
<path fill = "#FFFFFF" d="M1150 1840 l0 -120 25 0 c25 0 25 1 26 88 l1 87 30 -87 c28 -83 31
-88 58 -88 26 0 30 6 56 82 l29 83 3 -83 3 -82 29 0 30 0 0 108 c0 59 -4 113
-9 120 -5 8 -22 12 -46 10 -37 -3 -38 -4 -63 -76 -14 -40 -29 -69 -33 -65 -3
5 -12 26 -19 48 -26 82 -37 95 -80 95 l-40 0 0 -120z"/>
<path fill = "#FFFFFF" d="M1480 1840 l0 -120 25 0 c23 0 25 3 25 50 0 28 4 50 9 50 16 0 39
-29 52 -65 11 -29 18 -35 41 -35 35 0 36 20 4 76 -22 39 -22 41 -5 53 25 15
25 72 1 94 -13 12 -37 17 -85 17 l-67 0 0 -120z"/>
<path fill = "#FFFFFF" d="M1690 1840 l0 -120 24 0 c23 0 25 4 28 52 l3 53 34 -53 c27 -43 38
-52 62 -52 38 0 37 12 -6 71 -19 27 -35 52 -35 55 0 14 65 95 68 85 2 -6 19
-11 38 -11 l34 0 0 -100 0 -100 25 0 25 0 0 100 0 100 35 0 c28 0 35 4 35 20
0 19 -7 20 -125 20 l-124 0 -33 -47 -33 -48 -3 48 c-3 42 -5 47 -28 47 l-24 0
0 -120z"/>
<path fill = "#FFFFFF" d="M2086 1941 c-12 -13 -16 -32 -14 -58 3 -32 8 -41 37 -55 19 -9 41
-24 49 -32 12 -12 12 -15 -6 -25 -14 -8 -29 -8 -47 -1 -38 15 -45 13 -45 -14
0 -28 16 -36 74 -36 59 0 86 22 86 70 0 30 -6 43 -26 59 -15 12 -32 21 -39 21
-7 0 -18 7 -26 16 -10 13 -10 17 2 25 8 5 21 6 29 3 43 -18 50 -17 50 9 0 28
-16 37 -69 37 -25 0 -44 -7 -55 -19z"/>
<path fill = "#FFFFFF" d="M2103 1618 l-423 -149 -431 141 c-238 77 -433 139 -435 137 -2 -2 -1
-224 3 -494 l6 -490 421 -138 c232 -76 423 -140 426 -144 6 -8 33 -8 40 0 3 3
192 71 420 150 l415 146 3 496 c2 395 0 497 -10 496 -7 -1 -203 -69 -435 -151z
m407 -355 l0 -458 -386 -135 c-213 -74 -393 -136 -400 -138 -12 -3 -14 69 -14
451 l0 454 338 118 c185 65 364 129 397 141 33 13 61 23 63 24 1 0 2 -206 2
-457z m-1241 301 l388 -127 7 -449 c4 -248 5 -452 3 -455 -6 -5 -786 246 -798
256 -4 3 -10 210 -13 460 -7 411 -6 453 9 448 8 -4 190 -64 404 -133z"/>
</g>
</svg>
